<?xml version="1.0" encoding="UTF-8"?>
<svg xmlns="http://www.w3.org/2000/svg" viewBox="0 0 304 118" role="img" aria-label="Dojo">
  <!-- Pixel DOJO; row colors match src/utils/logger.ts (no text glyphs ? stable on GitHub). -->
  <rect x="12" y="12" width="9" height="9" rx="1" fill="#ff8232"/>
  <rect x="22" y="12" width="9" height="9" rx="1" fill="#ff8232"/>
  <rect x="32" y="12" width="9" height="9" rx="1" fill="#ff8232"/>
  <rect x="42" y="12" width="9" height="9" rx="1" fill="#ff8232"/>
  <rect x="12" y="22" width="9" height="9" rx="1" fill="#ff8c3c"/>
  <rect x="52" y="22" width="9" height="9" rx="1" fill="#ff8c3c"/>
  <rect x="12" y="32" width="9" height="9" rx="1" fill="#ff9646"/>
  <rect x="52" y="32" width="9" height="9" rx="1" fill="#ff9646"/>
  <rect x="12" y="42" width="9" height="9" rx="1" fill="#ffa050"/>
  <rect x="52" y="42" width="9" height="9" rx="1" fill="#ffa050"/>
  <rect x="12" y="52" width="9" height="9" rx="1" fill="#ffaa5a"/>
  <rect x="52" y="52" width="9" height="9" rx="1" fill="#ffaa5a"/>
  <rect x="12" y="62" width="9" height="9" rx="1" fill="#ffb464"/>
  <rect x="52" y="62" width="9" height="9" rx="1" fill="#ffb464"/>
  <rect x="12" y="72" width="9" height="9" rx="1" fill="#ffb464"/>
  <rect x="22" y="72" width="9" height="9" rx="1" fill="#ffb464"/>
  <rect x="32" y="72" width="9" height="9" rx="1" fill="#ffb464"/>
  <rect x="42" y="72" width="9" height="9" rx="1" fill="#ffb464"/>
  <rect x="92" y="12" width="9" height="9" rx="1" fill="#ff8232"/>
  <rect x="102" y="12" width="9" height="9" rx="1" fill="#ff8232"/>
  <rect x="112" y="12" width="9" height="9" rx="1" fill="#ff8232"/>
  <rect x="82" y="22" width="9" height="9" rx="1" fill="#ff8c3c"/>
  <rect x="122" y="22" width="9" height="9" rx="1" fill="#ff8c3c"/>
  <rect x="82" y="32" width="9" height="9" rx="1" fill="#ff9646"/>
  <rect x="122" y="32" width="9" height="9" rx="1" fill="#ff9646"/>
  <rect x="82" y="42" width="9" height="9" rx="1" fill="#ffa050"/>
  <rect x="122" y="42" width="9" height="9" rx="1" fill="#ffa050"/>
  <rect x="82" y="52" width="9" height="9" rx="1" fill="#ffaa5a"/>
  <rect x="122" y="52" width="9" height="9" rx="1" fill="#ffaa5a"/>
  <rect x="82" y="62" width="9" height="9" rx="1" fill="#ffb464"/>
  <rect x="122" y="62" width="9" height="9" rx="1" fill="#ffb464"/>
  <rect x="92" y="72" width="9" height="9" rx="1" fill="#ffb464"/>
  <rect x="102" y="72" width="9" height="9" rx="1" fill="#ffb464"/>
  <rect x="112" y="72" width="9" height="9" rx="1" fill="#ffb464"/>
  <rect x="162" y="12" width="9" height="9" rx="1" fill="#ff8232"/>
  <rect x="172" y="12" width="9" height="9" rx="1" fill="#ff8232"/>
  <rect x="182" y="12" width="9" height="9" rx="1" fill="#ff8232"/>
  <rect x="192" y="12" width="9" height="9" rx="1" fill="#ff8232"/>
  <rect x="192" y="22" width="9" height="9" rx="1" fill="#ff8c3c"/>
  <rect x="192" y="32" width="9" height="9" rx="1" fill="#ff9646"/>
  <rect x="192" y="42" width="9" height="9" rx="1" fill="#ffa050"/>
  <rect x="192" y="52" width="9" height="9" rx="1" fill="#ffaa5a"/>
  <rect x="152" y="62" width="9" height="9" rx="1" fill="#ffb464"/>
  <rect x="192" y="62" width="9" height="9" rx="1" fill="#ffb464"/>
  <rect x="162" y="72" width="9" height="9" rx="1" fill="#ffb464"/>
  <rect x="172" y="72" width="9" height="9" rx="1" fill="#ffb464"/>
  <rect x="182" y="72" width="9" height="9" rx="1" fill="#ffb464"/>
  <rect x="232" y="12" width="9" height="9" rx="1" fill="#ff8232"/>
  <rect x="242" y="12" width="9" height="9" rx="1" fill="#ff8232"/>
  <rect x="252" y="12" width="9" height="9" rx="1" fill="#ff8232"/>
  <rect x="222" y="22" width="9" height="9" rx="1" fill="#ff8c3c"/>
  <rect x="262" y="22" width="9" height="9" rx="1" fill="#ff8c3c"/>
  <rect x="222" y="32" width="9" height="9" rx="1" fill="#ff9646"/>
  <rect x="262" y="32" width="9" height="9" rx="1" fill="#ff9646"/>
  <rect x="222" y="42" width="9" height="9" rx="1" fill="#ffa050"/>
  <rect x="262" y="42" width="9" height="9" rx="1" fill="#ffa050"/>
  <rect x="222" y="52" width="9" height="9" rx="1" fill="#ffaa5a"/>
  <rect x="262" y="52" width="9" height="9" rx="1" fill="#ffaa5a"/>
  <rect x="222" y="62" width="9" height="9" rx="1" fill="#ffb464"/>
  <rect x="262" y="62" width="9" height="9" rx="1" fill="#ffb464"/>
  <rect x="232" y="72" width="9" height="9" rx="1" fill="#ffb464"/>
  <rect x="242" y="72" width="9" height="9" rx="1" fill="#ffb464"/>
  <rect x="252" y="72" width="9" height="9" rx="1" fill="#ffb464"/>
  <text x="152" y="100" fill="#8b949e" font-family="ui-monospace, SFMono-Regular, Menlo, Consolas, monospace" font-size="11" font-weight="400" text-anchor="middle">Agent Workspace CLI</text>
</svg>
